HIERARCHY
ROOT mixamorig_Hips
{
	OFFSET 0.003029 2.391111 -0.063197
	CHANNELS 6 Xposition Yposition Zposition Xrotation Yrotation Zrotation
	JOINT mixamorig_Spine
	{
		OFFSET 0.000037 0.218743 -0.014868
		CHANNELS 6 Xposition Yposition Zposition Xrotation Yrotation Zrotation
		JOINT mixamorig_Spine1
		{
			OFFSET 0.000043 0.255199 -0.017346
			CHANNELS 6 Xposition Yposition Zposition Xrotation Yrotation Zrotation
			JOINT mixamorig_Spine2
			{
				OFFSET 0.000049 0.291657 -0.019824
				CHANNELS 6 Xposition Yposition Zposition Xrotation Yrotation Zrotation
				JOINT mixamorig_Neck
				{
					OFFSET 0.000054 0.328114 -0.022301
					CHANNELS 6 Xposition Yposition Zposition Xrotation Yrotation Zrotation
					JOINT mixamorig_Head
					{
						OFFSET 0.000000 0.149230 0.067663
						CHANNELS 6 Xposition Yposition Zposition Xrotation Yrotation Zrotation
						JOINT mixamorig_HeadTop_End
						{
							OFFSET 0.000000 0.424075 0.192282
							CHANNELS 6 Xposition Yposition Zposition Xrotation Yrotation Zrotation
							End Site
							{
								OFFSET 0.000000 0.424075 0.192282
							}
						}
					}
				}
				JOINT mixamorig_LeftShoulder
				{
					OFFSET 0.144465 0.283077 -0.022691
					CHANNELS 6 Xposition Yposition Zposition Xrotation Yrotation Zrotation
					JOINT mixamorig_LeftArm
					{
						OFFSET 0.288824 -0.090073 -0.000785
						CHANNELS 6 Xposition Yposition Zposition Xrotation Yrotation Zrotation
						JOINT mixamorig_LeftForeArm
						{
							OFFSET 0.404976 -0.248276 0.009414
							CHANNELS 6 Xposition Yposition Zposition Xrotation Yrotation Zrotation
							JOINT mixamorig_LeftHand
							{
								OFFSET 0.460136 -0.238232 0.283751
								CHANNELS 6 Xposition Yposition Zposition Xrotation Yrotation Zrotation
								JOINT mixamorig_LeftHandIndex1
								{
									OFFSET 0.076425 -0.088070 0.114620
									CHANNELS 6 Xposition Yposition Zposition Xrotation Yrotation Zrotation
									JOINT mixamorig_LeftHandIndex2
									{
										OFFSET 0.037038 -0.042861 0.009225
										CHANNELS 6 Xposition Yposition Zposition Xrotation Yrotation Zrotation
										JOINT mixamorig_LeftHandIndex3
										{
											OFFSET 0.050284 -0.021473 0.042193
											CHANNELS 6 Xposition Yposition Zposition Xrotation Yrotation Zrotation
											JOINT mixamorig_LeftHandIndex4
											{
												OFFSET 0.021095 -0.014427 0.015497
												CHANNELS 6 Xposition Yposition Zposition Xrotation Yrotation Zrotation
												End Site
												{
													OFFSET 0.021095 -0.014427 0.015497
												}
											}
										}
									}
								}
							}
						}
					}
				}
				JOINT mixamorig_RightShoulder
				{
					OFFSET -0.143674 0.284997 -0.021910
					CHANNELS 6 Xposition Yposition Zposition Xrotation Yrotation Zrotation
					JOINT mixamorig_RightArm
					{
						OFFSET -0.287463 -0.086233 0.000780
						CHANNELS 6 Xposition Yposition Zposition Xrotation Yrotation Zrotation
						JOINT mixamorig_RightForeArm
						{
							OFFSET -0.399589 -0.246765 0.002710
							CHANNELS 6 Xposition Yposition Zposition Xrotation Yrotation Zrotation
							JOINT mixamorig_RightHand
							{
								OFFSET -0.467399 -0.241373 0.281228
								CHANNELS 6 Xposition Yposition Zposition Xrotation Yrotation Zrotation
								JOINT mixamorig_RightHandIndex1
								{
									OFFSET -0.108032 -0.094182 0.125162
									CHANNELS 6 Xposition Yposition Zposition Xrotation Yrotation Zrotation
									JOINT mixamorig_RightHandIndex2
									{
										OFFSET -0.024173 -0.047998 0.027741
										CHANNELS 6 Xposition Yposition Zposition Xrotation Yrotation Zrotation
										JOINT mixamorig_RightHandIndex3
										{
											OFFSET -0.029763 -0.024956 0.035314
											CHANNELS 6 Xposition Yposition Zposition Xrotation Yrotation Zrotation
											JOINT mixamorig_RightHandIndex4
											{
												OFFSET -0.019419 -0.013743 0.006098
												CHANNELS 6 Xposition Yposition Zposition Xrotation Yrotation Zrotation
												End Site
												{
													OFFSET -0.019419 -0.013743 0.006098
												}
											}
										}
									}
								}
							}
						}
					}
				}
			}
		}
	}
	JOINT mixamorig_LeftUpLeg
	{
		OFFSET 0.189034 -0.122014 -0.005415
		CHANNELS 6 Xposition Yposition Zposition Xrotation Yrotation Zrotation
		JOINT mixamorig_LeftLeg
		{
			OFFSET 0.151311 -1.007878 0.040988
			CHANNELS 6 Xposition Yposition Zposition Xrotation Yrotation Zrotation
			JOINT mixamorig_LeftFoot
			{
				OFFSET 0.114341 -0.988243 -0.048910
				CHANNELS 6 Xposition Yposition Zposition Xrotation Yrotation Zrotation
				JOINT mixamorig_LeftToeBase
				{
					OFFSET 0.103477 -0.279232 0.323868
					CHANNELS 6 Xposition Yposition Zposition Xrotation Yrotation Zrotation
					JOINT mixamorig_LeftToe_End
					{
						OFFSET 0.051617 -0.003830 0.157067
						CHANNELS 6 Xposition Yposition Zposition Xrotation Yrotation Zrotation
						End Site
						{
							OFFSET 0.051617 -0.003830 0.157067
						}
					}
				}
			}
		}
	}
	JOINT mixamorig_RightUpLeg
	{
		OFFSET -0.200944 -0.121034 -0.009075
		CHANNELS 6 Xposition Yposition Zposition Xrotation Yrotation Zrotation
		JOINT mixamorig_RightLeg
		{
			OFFSET -0.144783 -1.006898 0.044265
			CHANNELS 6 Xposition Yposition Zposition Xrotation Yrotation Zrotation
			JOINT mixamorig_RightFoot
			{
				OFFSET -0.115121 -0.980906 -0.055156
				CHANNELS 6 Xposition Yposition Zposition Xrotation Yrotation Zrotation
				JOINT mixamorig_RightToeBase
				{
					OFFSET -0.113671 -0.284172 0.327430
					CHANNELS 6 Xposition Yposition Zposition Xrotation Yrotation Zrotation
					JOINT mixamorig_RightToe_End
					{
						OFFSET -0.056400 -0.006888 0.156987
						CHANNELS 6 Xposition Yposition Zposition Xrotation Yrotation Zrotation
						End Site
						{
							OFFSET -0.056400 -0.006888 0.156987
						}
					}
				}
			}
		}
	}
}
MOTION
Frames: 4
Frame Time: 0.041667
-0.001753 2.383229 0.008483 -3.630862 -4.886325 -2.392545 0.000036 0.218743 -0.014868 3.285680 1.539373 1.713820 0.000043 0.255199 -0.017346 1.137373 0.321189 1.399947 0.000049 0.291657 -0.019824 1.116028 0.346561 1.398258 0.000055 0.328114 -0.022302 5.433268 -0.010914 0.423187 -0.000000 0.149230 0.067663 -7.763725 1.559553 -0.092178 0.000000 0.424075 0.192282 0.000001 -0.000000 0.000000 0.144467 0.283077 -0.022693 1.045638 -17.429946 -6.465033 0.288825 -0.090074 -0.000782 2.065961 -19.087582 -45.894268 0.404975 -0.248275 0.009413 14.179608 22.706849 -4.701953 0.460135 -0.238231 0.283749 -8.950582 26.794960 -7.064398 0.076425 -0.088072 0.114620 -30.540440 -24.846068 -10.275650 0.037038 -0.042861 0.009225 34.916200 2.499685 -40.114760 0.050284 -0.021473 0.042193 -2.080362 -5.175389 -1.180118 0.021095 -0.014427 0.015497 0.000003 0.000003 -0.000002 -0.143675 0.284997 -0.021912 1.203740 15.295971 8.748515 -0.287460 -0.086234 0.000782 9.934841 27.539615 35.643465 -0.399593 -0.246766 0.002709 11.353910 -18.393491 3.754876 -0.467398 -0.241371 0.281226 -0.941897 -18.554487 6.141691 -0.108031 -0.094182 0.125164 -16.424228 6.195189 -8.698810 -0.024173 -0.047997 0.027741 26.928717 12.810664 29.010901 -0.029763 -0.024957 0.035315 -14.471941 23.969876 16.462725 -0.019419 -0.013744 0.006098 0.000001 -0.000000 0.000001 0.189035 -0.122013 -0.005415 -9.979767 15.062155 1.512614 0.151311 -1.007878 0.040987 14.007550 3.685416 3.970442 0.114340 -0.988243 -0.048909 -1.562313 0.327597 0.095779 0.103477 -0.279231 0.323867 -4.931648 -0.000002 -0.000004 0.051617 -0.003830 0.157067 0.000000 0.000002 0.000001 -0.200944 -0.121034 -0.009074 0.526268 -10.247681 9.945108 -0.144784 -1.006899 0.044264 9.041974 -11.166085 -3.302517 -0.115121 -0.980906 -0.055157 -6.988969 -1.394009 -3.928148 -0.113671 -0.284172 0.327431 -7.449948 0.000045 -0.000009 -0.056400 -0.006888 0.156987 -0.000001 -0.000002 0.000001 
-0.008832 2.376095 0.013026 -3.566656 -4.516226 -1.350389 0.000036 0.218743 -0.014868 3.288998 1.529396 1.064851 0.000043 0.255199 -0.017346 1.124947 0.309540 1.237410 0.000049 0.291657 -0.019824 1.104697 0.333025 1.236055 0.000055 0.328114 -0.022302 5.457258 0.083520 0.364230 0.000000 0.149230 0.067663 -8.157704 1.860362 -0.136062 -0.000000 0.424075 0.192282 -0.000000 0.000000 0.000000 0.144467 0.283077 -0.022693 1.047591 -17.413738 -6.469001 0.288825 -0.090075 -0.000782 2.197105 -17.666851 -45.159240 0.404975 -0.248275 0.009413 13.853076 22.228680 -4.572763 0.460135 -0.238231 0.283749 -7.507896 25.173547 -5.786985 0.076425 -0.088072 0.114620 -30.894667 -24.966628 -9.006805 0.037038 -0.042861 0.009225 35.196904 2.002134 -40.865227 0.050284 -0.021473 0.042193 -0.955140 -5.601693 -2.984626 0.021095 -0.014427 0.015497 0.000002 0.000002 -0.000001 -0.143675 0.284998 -0.021912 1.204140 15.310216 8.729556 -0.287460 -0.086234 0.000782 9.916448 26.325835 35.231513 -0.399593 -0.246766 0.002709 11.321015 -18.342172 3.744040 -0.467398 -0.241371 0.281226 0.132777 -17.446070 4.705952 -0.108031 -0.094182 0.125164 -15.319281 6.496732 -7.018578 -0.024174 -0.047998 0.027741 27.972797 14.591763 30.984054 -0.029763 -0.024957 0.035315 -13.827476 24.401570 18.931143 -0.019419 -0.013744 0.006098 -0.000002 0.000001 -0.000001 0.189035 -0.122014 -0.005415 -10.287398 15.165928 0.738137 0.151311 -1.007879 0.040987 15.071895 3.685237 3.935123 0.114340 -0.988243 -0.048909 -2.092938 0.010559 -0.043898 0.103477 -0.279231 0.323867 -4.987717 -0.000016 -0.000018 0.051617 -0.003830 0.157067 0.000000 -0.000000 -0.000001 -0.200944 -0.121034 -0.009074 -1.468235 -10.184211 8.741320 -0.144784 -1.006899 0.044264 12.937510 -11.685421 -3.200528 -0.115121 -0.980906 -0.055157 -9.089319 -1.923783 -3.612532 -0.113671 -0.284172 0.327431 -7.527249 0.000045 -0.000017 -0.056400 -0.006888 0.156987 0.000001 -0.000001 0.000001 
-0.016343 2.368714 0.018020 -3.550096 -4.164749 -0.237408 0.000036 0.218743 -0.014868 3.323441 1.514403 0.378169 0.000043 0.255199 -0.017346 1.103627 0.296935 1.065119 0.000049 0.291657 -0.019824 1.084664 0.318355 1.064026 0.000055 0.328114 -0.022302 5.686020 0.197735 0.303305 0.000000 0.149230 0.067663 -8.715712 2.261889 -0.213623 -0.000000 0.424074 0.192282 0.000001 -0.000000 -0.000000 0.144467 0.283077 -0.022693 1.038448 -17.421533 -6.507717 0.288825 -0.090075 -0.000782 1.899230 -16.114556 -44.499161 0.404975 -0.248275 0.009413 13.924979 22.334415 -4.600995 0.460135 -0.238231 0.283749 -6.391202 23.129681 -4.157623 0.076425 -0.088072 0.114620 -31.373186 -25.106059 -7.431167 0.037038 -0.042861 0.009225 35.401553 1.629482 -41.422092 0.050284 -0.021473 0.042193 0.048973 -6.016418 -4.606711 0.021095 -0.014427 0.015496 0.000004 0.000003 -0.000002 -0.143675 0.284997 -0.021912 1.197055 15.385158 8.710942 -0.287460 -0.086234 0.000782 9.910256 25.151458 34.781625 -0.399593 -0.246766 0.002709 11.282126 -18.281466 3.731258 -0.467398 -0.241371 0.281226 1.433617 -16.355499 3.016913 -0.108031 -0.094182 0.125164 -14.104830 6.867419 -5.138484 -0.024174 -0.047998 0.027741 29.009521 16.498363 33.037912 -0.029763 -0.024957 0.035315 -13.196923 24.861889 21.422294 -0.019419 -0.013744 0.006098 0.000001 -0.000001 -0.000001 0.189035 -0.122013 -0.005415 -10.478503 15.223223 -0.117928 0.151311 -1.007879 0.040987 16.098706 3.663407 3.901136 0.114340 -0.988243 -0.048909 -2.618327 -0.246565 -0.201952 0.103477 -0.279231 0.323867 -4.933246 -0.000027 -0.000033 0.051617 -0.003830 0.157067 0.000000 -0.000001 -0.000000 -0.200944 -0.121034 -0.009074 -3.085560 -9.966849 7.527920 -0.144784 -1.006899 0.044264 16.229489 -12.132730 -3.061244 -0.115121 -0.980906 -0.055157 -10.984906 -2.361332 -3.407417 -0.113671 -0.284172 0.327431 -7.609853 0.000056 -0.000008 -0.056400 -0.006888 0.156987 0.000000 -0.000003 0.000002 
-0.024488 2.361298 0.023196 -3.568056 -3.871051 0.946697 0.000036 0.218743 -0.014868 3.412713 1.530804 -0.375204 0.000043 0.255199 -0.017346 1.077095 0.289597 0.880001 0.000049 0.291657 -0.019824 1.059621 0.308648 0.879137 0.000055 0.328114 -0.022302 6.047997 0.313377 0.264434 0.000000 0.149230 0.067663 -9.404043 2.679447 -0.294713 0.000000 0.424075 0.192282 -0.000002 0.000000 -0.000000 0.144467 0.283077 -0.022693 1.029762 -17.409146 -6.566970 0.288825 -0.090075 -0.000782 1.715747 -14.911947 -43.732779 0.404975 -0.248275 0.009413 13.985840 22.423595 -4.625035 0.460135 -0.238231 0.283749 -5.536542 21.257586 -2.518827 0.076425 -0.088071 0.114620 -31.924304 -25.267762 -5.666284 0.037038 -0.042861 0.009225 35.560407 1.333965 -41.860477 0.050284 -0.021473 0.042193 0.976082 -6.428919 -6.115376 0.021095 -0.014427 0.015497 0.000002 0.000001 -0.000001 -0.143675 0.284997 -0.021912 1.208726 15.383772 8.580306 -0.287460 -0.086234 0.000782 9.565997 24.087600 34.549399 -0.399593 -0.246766 0.002709 11.407168 -18.476473 3.772513 -0.467397 -0.241371 0.281226 2.847304 -15.378010 1.319034 -0.108031 -0.094182 0.125164 -12.874724 7.290287 -3.213568 -0.024173 -0.047997 0.027741 29.995923 18.462906 35.101397 -0.029762 -0.024957 0.035315 -12.585096 25.348041 23.924025 -0.019419 -0.013744 0.006098 0.000002 -0.000002 -0.000003 0.189035 -0.122014 -0.005415 -10.469048 15.337024 -1.073112 0.151311 -1.007878 0.040987 16.908369 3.536147 3.885547 0.114340 -0.988243 -0.048909 -3.178342 -0.408246 -0.351386 0.103477 -0.279231 0.323867 -4.758171 -0.000016 0.000005 0.051617 -0.003830 0.157067 -0.000000 -0.000002 0.000001 -0.200944 -0.121034 -0.009074 -4.513464 -9.474362 6.310562 -0.144784 -1.006899 0.044264 19.254051 -12.515499 -2.907221 -0.115121 -0.980906 -0.055157 -12.708566 -2.785134 -3.243685 -0.113671 -0.284172 0.327431 -7.805725 0.000040 -0.000019 -0.056400 -0.006888 0.156987 0.000000 -0.000001 0.000001 
